PathFileType	4	(X/Y/Z)	RBDS024\RBDS024runT35.trc
DataRate	CameraRate	NumFrames	NumMarkers	Units	OrigDataRate	OrigDataStartFrame	OrigNumFrames
150.000000	150.000000	4	33	mm	150.000000	562	4500
Frame#	Time	L.ASIS			L.Heel.Bottom			L.Heel.Lateral			L.Heel.Top			L.Iliac.Crest			L.MT1			L.MT5			L.PSIS			L.Shank.Bottom.Lateral			L.Shank.Bottom.Medial			L.Shank.Top.Lateral			L.Shank.Top.Medial			L.Thigh.Bottom.Lateral			L.Thigh.Bottom.Medial			L.Thigh.Top.Lateral			L.Thigh.Top.Medial			R.ASIS			R.ASY			R.Heel.Bottom			R.Heel.Lateral			R.Heel.Top			R.Iliac.Crest			R.MT1			R.MT5			R.PSIS			R.Shank.Bottom.Lateral			R.Shank.Bottom.Medial			R.Shank.Top.Lateral			R.Shank.Top.Medial			R.Thigh.Bottom.Lateral			R.Thigh.Bottom.Medial			R.Thigh.Top.Lateral			R.Thigh.Top.Medial			
		X1	Y1	Z1	X2	Y2	Z2	X3	Y3	Z3	X4	Y4	Z4	X5	Y5	Z5	X6	Y6	Z6	X7	Y7	Z7	X8	Y8	Z8	X9	Y9	Z9	X10	Y10	Z10	X11	Y11	Z11	X12	Y12	Z12	X13	Y13	Z13	X14	Y14	Z14	X15	Y15	Z15	X16	Y16	Z16	X17	Y17	Z17	X18	Y18	Z18	X19	Y19	Z19	X20	Y20	Z20	X21	Y21	Z21	X22	Y22	Z22	X23	Y23	Z23	X24	Y24	Z24	X25	Y25	Z25	X26	Y26	Z26	X27	Y27	Z27	X28	Y28	Z28	X29	Y29	Z29	X30	Y30	Z30	X31	Y31	Z31	X32	Y32	Z32	X33	Y33	Z33	

563	3.746666666666667	2195.460521783112	932.5415951141287	911.6616003224384	1869.122378485324	434.5723611955836	940.8316299393316	1896.079816885989	418.1166330535615	898.7194132018609	1913.703290674486	438.2629705486714	942.7700031556647	2111.04831387257	1004.346876731193	844.4334752092078	1943.611027727304	224.5280553566953	980.1984402104353	1931.59574574182	257.1016410844994	866.3252209646661	2007.029491045296	982.0513847496165	943.4788944092853	2030.754339994909	407.6364223108853	889.1076067319157	2014.082516399541	450.9370372151301	910.7208919897095	2103.882394136475	439.7395796517949	873.9618632065026	2090.221870873339	485.4974202140181	897.1892827225373	2282.419436881907	611.1135210369691	848.200993921945	2233.846105675269	573.6649844467347	884.5345119874486	2206.361529669171	689.296144043697	831.3206249138595	2159.083160233872	653.5872596767153	865.3838344889424	2151.073834267107	942.3285469331407	1146.613455927119	1957.751913243411	81.42660361807832	1027.746362737782	1769.162892179745	62.18017218913251	996.0225451013896	1797.049979604196	71.18867670205326	1045.93482667026	1784.542790519849	103.6285594126722	1001.914679461198	2073.674864713521	1011.116594625982	1182.037460549434	1986.967765462449	42.43328508796081	973.5606875067452	1946.838503928551	34.4520303200615	1088.35648953854	1993.097166133741	988.2095691247069	1044.76605786673	1883.099214065491	175.7756294263904	1080.593787263445	1854.422216235329	207.511806160657	1044.934147035367	1917.65525351568	243.3300764591114	1110.186762333998	1890.606468493373	272.9592175125896	1074.140551835033	2053.998041318887	567.7980689469373	1171.343174204686	1998.382362723473	566.6552228156856	1124.453927803459	2035.852372073383	675.2480886069418	1184.930545267049	1984.069132766892	673.6887569358123	1139.426445638087	
564	3.753333333333333	2196.443137330723	937.8941719892291	912.2561671522085	1880.480667081227	417.2597890071196	941.5628028521019	1908.273297885504	402.6994700263784	899.3033182271809	1924.758680678694	423.9180075663874	943.3596701703968	2112.504356199936	1009.742262979386	844.4624279789625	1968.412398269671	212.3636160793598	979.8300121019465	1953.908485003021	244.4200042091945	866.1310609166492	2007.832077199148	987.1939102778665	943.3786184433737	2043.472199900821	400.1605827435263	889.4467450018431	2024.397149211486	442.4174338246585	911.0905126740669	2114.607127890247	436.4246359602465	874.2133066435475	2098.447693394492	481.2642930856645	897.5336508969837	2288.171437909974	620.2880048113358	848.1558526894293	2240.29078484305	581.9987727693375	884.5444692347348	2210.730130205912	696.9564749478325	830.9742516034102	2164.009839343829	660.4396475260606	865.0136408997962	2151.430078530573	945.9686759148824	1146.197513145451	1936.369638291808	82.53263841145034	1027.842245252163	1747.312891440618	69.48629371064939	996.276682684285	1775.63156334777	77.49220002208568	1046.19799384661	1763.772467058599	110.4407749397587	1002.260798824371	2075.795480766844	1015.804687323016	1181.383414474777	1963.546409264318	42.49212620488301	973.4310700138709	1923.680013612438	35.37330066871875	1088.056290017488	1993.955134070859	992.4412350741476	1044.969272084599	1862.701804413775	181.4115485458774	1080.12808012093	1834.643340139922	213.160591145445	1043.993330430118	1897.823345598166	248.839492605837	1109.382237836016	1871.327279044132	278.4582355474091	1072.91861912369	2042.564140719125	572.1404248677247	1170.220953820623	1986.852957585261	573.1977085707081	1123.496672899389	2028.607840096412	680.1189061633175	1184.002747723444	1976.545743197264	680.6360281559492	1138.779691645395	
565	3.76	2197.627041100746	943.6092670166493	912.8813897644244	1892.657763281861	399.2023072612982	942.571641153564	1921.106432644028	386.6045883637483	900.132386279033	1936.431879517837	408.84488133681	944.2068089170195	2114.182005158183	1015.593576024419	844.5331806529196	1993.877492286228	200.3846701318898	979.5392236235283	1976.706189559605	231.7448052790253	866.1182346550787	2008.850017542667	992.715646916261	943.3252061869143	2056.27763000867	392.2889942942098	889.895512858104	2034.827561802521	433.2798258479886	911.6971036851108	2125.076170729386	432.7445410625338	874.559354931415	2106.464901268015	476.4301578591284	898.1117855522115	2293.21675386088	629.3465484043503	848.1094315442014	2245.946219647757	590.4237997511881	884.6338416869327	2214.670732904823	704.7425453040134	830.6366375855916	2168.459787554707	667.6181207885897	864.749501651275	2152.155886571845	949.7137379360076	1145.81071799531	1915.558559366075	83.71468738710213	1027.994884834499	1726.214397943075	77.84212195621456	996.5389151675154	1754.962612265833	84.67602328718398	1046.470013086109	1743.932024163894	118.1740103660044	1002.615832680119	2078.463379684179	1020.684047408944	1180.755268398777	1940.428201103897	42.61285308470773	973.3221839295641	1900.835209729949	36.45677117166736	1087.771332328421	1995.11095906279	996.9515209847406	1045.280117499693	1842.965820958515	187.8427592264199	1079.642643380733	1815.607922684985	219.4844695129327	1042.912922357079	1878.510825312467	255.2311131944822	1108.507047255413	1852.622500395583	284.729947150359	1071.526786632722	2031.371199561359	577.3317628167744	1168.963773080361	1975.886331288731	580.6796181913961	1122.144700134745	2021.656561238095	685.6529153938428	1182.9885139779	1969.569865350902	688.3401440227874	1137.84483145749	
566	3.766666666666667	2198.949635883614	949.6754697425791	913.4958312414713	1905.771334279324	380.5354266077149	943.7832289800508	1934.702599389585	369.9341632040212	901.1415777155756	1948.835452839825	393.1426561090348	945.2330785701789	2115.988225691124	1021.886803883414	844.6444721822141	2019.985487268292	188.706214320103	979.3261620313265	2000.034481983353	219.1509517245331	866.2684935280577	2010.046502775323	998.5347433282824	943.3300717069991	2069.27708707569	384.0588813014411	890.4198844508683	2045.508554730707	423.5670391259173	912.5007695999493	2135.398338360992	428.6824678039642	874.9782747558962	2114.402707248742	470.9911122927008	898.8913088810773	2297.553059269585	638.1760850018236	848.0608773537961	2250.795381016271	598.805056849695	884.7764312701537	2218.15788401079	712.5438530019454	830.3058424689483	2172.390402211503	674.9923133665482	864.5635828084652	2153.261680454876	953.5217779946258	1145.446848702197	1895.35240668362	84.9244034920173	1028.243885273654	1706.026970834436	87.2220384212302	996.8019049518834	1735.157522158968	92.69383099372422	1046.749470720776	1725.177888848821	126.7743900388124	1002.993125923817	2081.640175777738	1025.634889385441	1180.187253522372	1917.685409382268	42.7938082910978	973.2649540823069	1878.327849306516	37.69171288218817	1087.524533166883	1996.557214873933	1001.685900290705	1045.695751968888	1824.004423531266	194.9864652420308	1079.176414914704	1797.442829436411	226.3925198669412	1041.725173068588	1859.836999707143	262.4234703973456	1107.591625942997	1834.624649658751	291.6847672348772	1069.988887065746	2020.475207429942	583.3267842895789	1167.603412741704	1965.54813127285	589.0133936700165	1120.418739801	2015.022291857893	691.8144329269577	1181.905772600328	1963.204088973833	696.7247088540912	1136.608063939675	
